<svg width="127" height="24" viewBox="0 0 127 24" fill="none" xmlns="http://www.w3.org/2000/svg">
<path d="M17.0508 1.2V18H13.7628V7.104L9.03478 14.904H8.65078L3.92278 7.128V18H0.610781V1.2H4.01878L8.84278 9.144L13.6428 1.2H17.0508ZM65.1331 1.2H68.2291V18H65.1331V16.584C64.2211 17.752 62.9251 18.336 61.2451 18.336C59.6291 18.336 58.2451 17.728 57.0931 16.512C55.9571 15.28 55.3891 13.776 55.3891 12C55.3891 10.224 55.9571 8.728 57.0931 7.512C58.2451 6.28 59.6291 5.664 61.2451 5.664C62.9251 5.664 64.2211 6.248 65.1331 7.416V1.2ZM59.4211 14.448C60.0611 15.072 60.8611 15.384 61.8211 15.384C62.7811 15.384 63.5731 15.072 64.1971 14.448C64.8211 13.808 65.1331 12.992 65.1331 12C65.1331 11.008 64.8211 10.2 64.1971 9.576C63.5731 8.936 62.7811 8.616 61.8211 8.616C60.8611 8.616 60.0611 8.936 59.4211 9.576C58.7971 10.2 58.4851 11.008 58.4851 12C58.4851 12.992 58.7971 13.808 59.4211 14.448ZM72.5965 4.56C72.0845 4.56 71.6365 4.376 71.2525 4.008C70.8845 3.624 70.7005 3.176 70.7005 2.664C70.7005 2.152 70.8845 1.704 71.2525 1.32C71.6365 0.935999 72.0845 0.743999 72.5965 0.743999C73.1245 0.743999 73.5725 0.935999 73.9405 1.32C74.3245 1.704 74.5165 2.152 74.5165 2.664C74.5165 3.176 74.3245 3.624 73.9405 4.008C73.5725 4.376 73.1245 4.56 72.5965 4.56ZM71.0605 18V6H74.1565V18H71.0605ZM83.6622 5.664C84.9742 5.664 86.0542 6.104 86.9022 6.984C87.7662 7.864 88.1982 9.08 88.1982 10.632V18H85.1022V11.016C85.1022 10.216 84.8862 9.608 84.4542 9.192C84.0222 8.76 83.4462 8.544 82.7262 8.544C81.9262 8.544 81.2862 8.792 80.8062 9.288C80.3262 9.784 80.0862 10.528 80.0862 11.52V18H76.9902V6H80.0862V7.344C80.8382 6.224 82.0302 5.664 83.6622 5.664ZM100.034 6H103.058V17.424C103.058 19.28 102.442 20.696 101.21 21.672C99.9938 22.648 98.5218 23.136 96.7938 23.136C95.4978 23.136 94.3538 22.888 93.3618 22.392C92.3858 21.896 91.6338 21.168 91.1058 20.208L93.7458 18.696C94.3538 19.816 95.4018 20.376 96.8898 20.376C97.8658 20.376 98.6338 20.12 99.1938 19.608C99.7538 19.096 100.034 18.368 100.034 17.424V16.128C99.1218 17.344 97.8418 17.952 96.1938 17.952C94.4978 17.952 93.0738 17.36 91.9218 16.176C90.7858 14.976 90.2178 13.52 90.2178 11.808C90.2178 10.112 90.7938 8.664 91.9458 7.464C93.0978 6.264 94.5138 5.664 96.1938 5.664C97.8418 5.664 99.1218 6.272 100.034 7.488V6ZM94.2498 14.184C94.8898 14.792 95.6978 15.096 96.6738 15.096C97.6498 15.096 98.4498 14.792 99.0738 14.184C99.7138 13.56 100.034 12.768 100.034 11.808C100.034 10.864 99.7138 10.088 99.0738 9.48C98.4498 8.856 97.6498 8.544 96.6738 8.544C95.6978 8.544 94.8898 8.856 94.2498 9.48C93.6258 10.088 93.3138 10.864 93.3138 11.808C93.3138 12.768 93.6258 13.56 94.2498 14.184ZM108.481 13.272C108.897 14.776 110.025 15.528 111.865 15.528C113.049 15.528 113.945 15.128 114.553 14.328L117.049 15.768C115.865 17.48 114.121 18.336 111.817 18.336C109.833 18.336 108.241 17.736 107.041 16.536C105.841 15.336 105.241 13.824 105.241 12C105.241 10.192 105.833 8.688 107.017 7.488C108.201 6.272 109.721 5.664 111.577 5.664C113.337 5.664 114.785 6.272 115.921 7.488C117.073 8.704 117.649 10.208 117.649 12C117.649 12.4 117.609 12.824 117.529 13.272H108.481ZM108.433 10.872H114.553C114.377 10.056 114.009 9.448 113.449 9.048C112.905 8.648 112.281 8.448 111.577 8.448C110.745 8.448 110.057 8.664 109.513 9.096C108.969 9.512 108.609 10.104 108.433 10.872ZM122.907 8.064C123.195 7.296 123.667 6.72 124.323 6.336C124.995 5.952 125.739 5.76 126.555 5.76V9.216C125.611 9.104 124.763 9.296 124.011 9.792C123.275 10.288 122.907 11.112 122.907 12.264V18H119.811V6H122.907V8.064Z" fill="white"/>
</svg>
